<mxfile host="app.diagrams.net" modified="2023-04-11T16:09:21.787Z" agent="Mozilla/5.0 (X11; Linux x86_64) AppleWebKit/537.36 (KHTML, like Gecko) Chrome/111.0.0.0 Safari/537.36" version="21.1.5" etag="alRxyA6QOgH945PPFq_-" type="github">
  <diagram name="Page-1" id="AKfRnksEcH68V_XOvjZT">
    <mxGraphModel>
      <root>
        <mxCell id="0" />
        <mxCell id="1" parent="0" />
      </root>
    </mxGraphModel>
  </diagram>
</mxfile>
